<svg width="72" height="72" viewBox="0 0 72 72" fill="none" xmlns="http://www.w3.org/2000/svg">
<path fill-rule="evenodd" clip-rule="evenodd" d="M36 72C55.8823 72 72 55.8823 72 36C72 16.1177 55.8823 0 36 0C16.1177 0 0 16.1177 0 36C0 55.8823 16.1177 72 36 72Z" fill="#F2F5F7"/>
<rect x="18" y="22" width="36" height="28.5882" rx="3.25" fill="#F2F5F7"/>
<path fill-rule="evenodd" clip-rule="evenodd" d="M51.8824 22H20.1176C18.9481 22 18 22.9142 18 24.042V48.5462C18 49.674 18.9481 50.5882 20.1176 50.5882H51.8824C53.0519 50.5882 54 49.674 54 48.5462V24.042C54 22.9142 53.0519 22 51.8824 22ZM20.1186 48.5462V24.042H51.8833V48.5462H20.1186Z" fill="#C2D1D9"/>
<path fill-rule="evenodd" clip-rule="evenodd" d="M23.8246 30.4234C23.8246 32.538 25.6023 34.2522 27.7952 34.2522C29.9881 34.2522 31.7658 32.538 31.7658 30.4234C31.7658 28.3089 29.9881 26.5947 27.7952 26.5947C25.6023 26.5947 23.8246 28.3089 23.8246 30.4234ZM29.6481 30.4234C29.6481 31.4102 28.8185 32.2101 27.7951 32.2101C26.7718 32.2101 25.9422 31.4102 25.9422 30.4234C25.9422 29.4366 26.7718 28.6366 27.7951 28.6366C28.8185 28.6366 29.6481 29.4366 29.6481 30.4234Z" fill="#C2D1D9"/>
<path d="M25.6289 46.2082C25.2136 46.6052 24.5432 46.6024 24.1315 46.202C23.7198 45.8015 23.7227 45.155 24.138 44.758L32.8464 36.4329L37.7548 40.5497C38.196 40.9197 38.2426 41.5646 37.8588 41.9901C37.475 42.4156 36.8062 42.4605 36.365 42.0904L32.9406 39.2183L25.6289 46.2082Z" fill="#C2D1D9"/>
<path d="M33.5725 46.2052C33.159 46.6039 32.4886 46.6039 32.075 46.2052C31.6615 45.8065 31.6615 45.16 32.075 44.7613L46.0105 31.3223L53.6397 37.7773C54.0793 38.1492 54.1229 38.7943 53.7372 39.2181C53.3516 39.642 52.6826 39.6841 52.243 39.3122L46.1051 34.119L33.5725 46.2052Z" fill="#C2D1D9"/>
</svg>
