<svg width="144" height="144" viewBox="0 0 144 144" fill="none" xmlns="http://www.w3.org/2000/svg">
<rect width="144" height="144" fill="#F2F5F7"/>
<path fill-rule="evenodd" clip-rule="evenodd" d="M72 144C111.765 144 144 111.765 144 72C144 32.2355 111.765 0 72 0C32.2355 0 0 32.2355 0 72C0 111.765 32.2355 144 72 144Z" fill="#F2F5F7"/>
<rect x="36" y="44" width="72" height="57.1765" rx="3.25" fill="#F2F5F7"/>
<path fill-rule="evenodd" clip-rule="evenodd" d="M103.765 44H40.2353C37.8962 44 36 45.8285 36 48.084V97.0924C36 99.348 37.8962 101.176 40.2353 101.176H103.765C106.104 101.176 108 99.348 108 97.0924V48.084C108 45.8285 106.104 44 103.765 44ZM40.2372 97.0924V48.084H103.767V97.0924H40.2372Z" fill="#C2D1D9"/>
<path fill-rule="evenodd" clip-rule="evenodd" d="M47.6492 60.8469C47.6492 65.076 51.2046 68.5045 55.5903 68.5045C59.9761 68.5045 63.5315 65.076 63.5315 60.8469C63.5315 56.6177 59.9761 53.1893 55.5903 53.1893C51.2046 53.1893 47.6492 56.6177 47.6492 60.8469ZM59.2962 60.8467C59.2962 62.8203 57.637 64.4203 55.5903 64.4203C53.5436 64.4203 51.8844 62.8203 51.8844 60.8467C51.8844 58.8731 53.5436 57.2732 55.5903 57.2732C57.637 57.2732 59.2962 58.8731 59.2962 60.8467Z" fill="#C2D1D9"/>
<path d="M51.2577 92.4164C50.4272 93.2104 49.0864 93.2048 48.263 92.4039C47.4395 91.603 47.4453 90.3101 48.2759 89.5161L65.6929 72.8657L75.5095 81.0993C76.392 81.8395 76.4851 83.1293 75.7176 83.9802C74.95 84.8311 73.6124 84.9209 72.73 84.1808L65.8813 78.4365L51.2577 92.4164Z" fill="#C2D1D9"/>
<path d="M67.1449 92.4103C66.3179 93.2078 64.9771 93.2079 64.1501 92.4104C63.3231 91.613 63.323 90.3201 64.15 89.5226L92.021 62.6445L107.279 75.5546C108.159 76.2984 108.246 77.5886 107.474 78.4363C106.703 79.284 105.365 79.3682 104.486 78.6244L92.2103 68.238L67.1449 92.4103Z" fill="#C2D1D9"/>
</svg>
