<svg width="26" height="19" viewBox="0 0 26 19" fill="none" xmlns="http://www.w3.org/2000/svg">
<rect x="0.410156" y="0.0626221" width="24.785" height="18.7353" rx="3.25" fill="white"/>
<path fill-rule="evenodd" clip-rule="evenodd" d="M23.7372 0.0626221H1.86809C1.0629 0.0626221 0.410156 0.66177 0.410156 1.40086V17.4597C0.410156 18.1988 1.0629 18.7979 1.86809 18.7979H23.7372C24.5424 18.7979 25.1951 18.1988 25.1951 17.4597V1.40086C25.1951 0.66177 24.5424 0.0626221 23.7372 0.0626221ZM1.86782 17.4598V1.401H23.7369V17.4598H1.86782Z" fill="#C2D1D9"/>
<path fill-rule="evenodd" clip-rule="evenodd" d="M4.41895 5.58256C4.41895 6.96834 5.64284 8.09175 7.15258 8.09175C8.66232 8.09175 9.88621 6.96834 9.88621 5.58256C9.88621 4.19677 8.66232 3.07336 7.15258 3.07336C5.64284 3.07336 4.41895 4.19677 4.41895 5.58256ZM8.42885 5.58378C8.42885 6.23048 7.8577 6.75473 7.15315 6.75473C6.4486 6.75473 5.87745 6.23048 5.87745 5.58378C5.87745 4.93708 6.4486 4.41282 7.15315 4.41282C7.8577 4.41282 8.42885 4.93708 8.42885 5.58378Z" fill="#C2D1D9"/>
<path d="M5.66114 15.9275C5.37523 16.1877 4.91368 16.1859 4.63023 15.9234C4.34679 15.661 4.34878 15.2373 4.63469 14.9772L10.6302 9.52124L14.0095 12.2192C14.3132 12.4617 14.3453 12.8843 14.0811 13.1632C13.8169 13.442 13.3564 13.4714 13.0527 13.2289L10.6951 11.3466L5.66114 15.9275Z" fill="#C2D1D9"/>
<path d="M11.1307 15.9253C10.846 16.1866 10.3845 16.1866 10.0998 15.9253C9.81507 15.664 9.81505 15.2403 10.0997 14.979L19.6939 6.17175L24.9464 10.402C25.249 10.6458 25.2791 11.0685 25.0136 11.3463C24.748 11.6241 24.2875 11.6517 23.9848 11.408L19.7591 8.00458L11.1307 15.9253Z" fill="#C2D1D9"/>
</svg>
