<?xml version="1.0" encoding="utf-8"?>
<!-- Generator: Adobe Illustrator 23.0.2, SVG Export Plug-In . SVG Version: 6.00 Build 0)  -->
<svg version="1.1" id="Layer_1" xmlns="http://www.w3.org/2000/svg" xmlns:xlink="http://www.w3.org/1999/xlink" x="0px" y="0px"
	 viewBox="0 0 24 24" style="enable-background:new 0 0 24 24;" xml:space="preserve">
<style type="text/css">
	.st0{fill-rule:evenodd;clip-rule:evenodd;fill:#6100FF;}
</style>
<path class="st0" d="M15.3,13.2c0.7-0.5,0.7-1.7,0-2.2l-3.4-2.6c-1-0.7-2.2,0-2.2,1.2v5c0,1.2,1.4,1.9,2.2,1.2L15.3,13.2z M0,12
	c0,6.7,5.3,12,12,12s12-5.3,12-12S18.7,0,12,0S0,5.3,0,12z M2.4,12c0-5.3,4.3-9.6,9.6-9.6s9.6,4.3,9.6,9.6s-4.3,9.6-9.6,9.6
	S2.4,17.3,2.4,12z"/>
</svg>
